<svg width="148px" height="232px" viewBox="0 0 148 232" version="1.1" xmlns="http://www.w3.org/2000/svg" xmlns:xlink="http://www.w3.org/1999/xlink">
    <g id="Page-1" stroke="none" stroke-width="1" fill="none" fill-rule="evenodd">
        <g id="Case-Study" transform="translate(-152.000000, -3299.000000)">
            <g id="Group-21" transform="translate(153.000000, 3299.000000)">
                <polygon id="Fill-1" fill="#FFFFFF" points="74.0232275 31.7953977 55.4183994 84 41.6977658 84 23.0929377 31.5620492 15.0701805 84 1 84 13.4417652 4 27.1629245 4 48.673985 64.8464163 70.0699315 4 83.5582348 4 96 84 81.9303451 84"></polygon>
                <g id="Group-20">
                    <path d="M121.105344,83.10645 L135.091946,83.10645 L135.091946,27.35985 L121.105344,27.35985 L121.105344,83.10645 Z M119.123742,8.428875 C119.123742,6.1845 119.957796,4.229925 121.629591,2.5641 C123.299806,0.89985 125.417344,0.0672 127.981677,0.0672 C130.546011,0.0672 132.702011,0.86205 134.450731,2.448075 C136.198925,4.035675 137.073022,6.03015 137.073022,8.428875 C137.073022,10.8297 136.198925,12.824175 134.450731,14.4102 C132.702011,15.9978 130.546011,16.791075 127.981677,16.791075 C125.417344,16.791075 123.299806,15.96 121.629591,14.294175 C119.957796,12.629925 119.123742,10.67535 119.123742,8.428875 L119.123742,8.428875 Z" id="Fill-2" fill="#FFFFFF"></path>
                    <polygon id="Fill-4" fill="#FFFFFF" points="3.74839462 102.577282 17.7513301 102.577282 17.7513301 168.968782 49.3742441 168.968782 49.3742441 182.223982 3.74839462 182.223982"></polygon>
                    <path d="M107.018213,115.018312 C102.350568,115.018312 98.1291914,116.181187 94.3567183,118.506937 C90.5831914,120.831637 87.5689011,124.087162 85.3133204,128.273512 C84.1468043,130.444387 83.3095892,132.691912 82.8043097,135.017137 C82.2979763,137.342362 82.0461269,139.824562 82.0461269,142.459012 C82.0461269,147.574612 83.0962022,152.207212 85.1968796,156.353137 C87.2970301,160.501162 90.3308151,163.814437 94.2987613,166.294537 C98.0322452,168.620287 102.272062,169.782637 107.018213,169.782637 C111.684804,169.782637 115.924622,168.620287 119.736611,166.294537 C123.547019,163.968787 126.581858,160.713262 128.838492,156.527437 C129.92703,154.513012 130.723675,152.323762 131.231062,149.958637 C131.735288,147.594562 131.989772,145.094512 131.989772,142.459012 C131.989772,137.110312 130.919148,132.362737 128.780009,128.215237 C126.639288,124.069312 123.664514,120.793837 119.853578,118.390387 C116.196492,116.142862 111.91874,115.018312 107.018213,115.018312 M107.018213,183.386962 C99.5491376,183.386962 92.7997828,181.604587 86.7722559,178.038262 C80.7426215,174.473512 75.9780301,169.550062 72.477428,163.271587 C68.9768258,156.992587 67.2265247,150.056287 67.2265247,142.459012 C67.2265247,134.784562 68.9568043,127.828312 72.419471,121.587637 C75.8800301,115.349062 80.6456753,110.407237 86.713772,106.762687 C89.8244817,104.902613 93.0537398,103.547063 96.3994387,102.693413 C99.7425032,101.841338 103.283675,101.414513 107.018213,101.414513 C114.562105,101.414513 121.349923,103.198462 127.380084,106.762687 C133.407611,110.329012 138.17431,115.291312 141.673858,121.645912 C145.096482,127.848262 146.808847,134.784562 146.808847,142.459012 C146.808847,150.132937 145.076987,157.071337 141.616428,163.271587 C138.153761,169.473937 133.38917,174.395812 127.3216,178.038262 C124.209837,179.898337 120.980578,181.255462 117.635933,182.107537 C114.290761,182.959612 110.751697,183.386962 107.018213,183.386962" id="Fill-5" fill="#FFFFFF"></path>
                    <path d="M7.4025828,231 C6.00687312,231 4.74815269,230.670825 3.62589462,230.0109 C2.50363656,229.3515 1.61847527,228.44115 0.971464516,227.27985 C0.65428172,226.70655 0.413496774,226.1007 0.248582796,225.462825 C0.0826150538,224.82495 -0.000105376344,224.1477 -0.000105376344,223.43055 C-0.000105376344,221.9973 0.3234,220.703175 0.971464516,219.5487 C1.61847527,218.39475 2.50363656,217.4886 3.62589462,216.828675 C4.74815269,216.169275 6.00687312,215.839575 7.4025828,215.839575 C9.33044301,215.839575 11.0285828,216.534675 12.4959484,217.9254 L11.4817011,219.022125 C10.2588086,217.8897 8.89892688,217.323225 7.4025828,217.323225 C6.32352903,217.323225 5.35933548,217.584675 4.51105591,218.1081 C3.6611957,218.631525 2.98520645,219.366525 2.48203441,220.312575 C1.99256129,221.24445 1.74861505,222.283425 1.74861505,223.43055 C1.74861505,224.562975 1.9894,225.5883 2.47149677,226.505475 C2.95306667,227.4237 3.63327097,228.1545 4.51105591,228.698925 C5.38831398,229.243875 6.35250753,229.51635 7.4025828,229.51635 C8.99956129,229.51635 10.4168731,228.878475 11.6539914,227.6022 L12.711443,228.72045 C11.1718946,230.24085 9.40209892,231 7.4025828,231" id="Fill-6" fill="#FFFFFF"></path>
                    <path d="M7.4025828,231 C6.00687312,231 4.74815269,230.670825 3.62589462,230.0109 C2.50363656,229.3515 1.61847527,228.44115 0.971464516,227.27985 C0.65428172,226.70655 0.413496774,226.1007 0.248582796,225.462825 C0.0826150538,224.82495 -0.000105376344,224.1477 -0.000105376344,223.43055 C-0.000105376344,221.9973 0.3234,220.703175 0.971464516,219.5487 C1.61847527,218.39475 2.50363656,217.4886 3.62589462,216.828675 C4.74815269,216.169275 6.00687312,215.839575 7.4025828,215.839575 C9.33044301,215.839575 11.0285828,216.534675 12.4959484,217.9254 L11.4817011,219.022125 C10.2588086,217.8897 8.89892688,217.323225 7.4025828,217.323225 C6.32352903,217.323225 5.35933548,217.584675 4.51105591,218.1081 C3.6611957,218.631525 2.98520645,219.366525 2.48203441,220.312575 C1.99256129,221.24445 1.74861505,222.283425 1.74861505,223.43055 C1.74861505,224.562975 1.9894,225.5883 2.47149677,226.505475 C2.95306667,227.4237 3.63327097,228.1545 4.51105591,228.698925 C5.38831398,229.243875 6.35250753,229.51635 7.4025828,229.51635 C8.99956129,229.51635 10.4168731,228.878475 11.6539914,227.6022 L12.711443,228.72045 C11.1718946,230.24085 9.40209892,231 7.4025828,231 Z" id="Stroke-7" stroke="#FFFFFF" stroke-width="2"></path>
                    <path d="M28.8549935,217.77504 L25.7474452,225.51669 L31.9625419,225.51669 L28.8549935,217.77504 Z M34.077972,230.785065 L32.5241978,226.935765 L25.1641871,226.935765 L23.6320151,230.785065 L21.9923591,230.785065 L28.0130366,216.054615 L29.7833591,216.054615 L35.7824344,230.785065 L34.077972,230.785065 Z" id="Fill-8" fill="#FFFFFF"></path>
                    <path d="M28.8549935,217.77504 L25.7474452,225.51669 L31.9625419,225.51669 L28.8549935,217.77504 Z M34.077972,230.785065 L32.5241978,226.935765 L25.1641871,226.935765 L23.6320151,230.785065 L21.9923591,230.785065 L28.0130366,216.054615 L29.7833591,216.054615 L35.7824344,230.785065 L34.077972,230.785065 Z" id="Stroke-9" stroke="#FFFFFF" stroke-width="2"></path>
                    <path d="M53.8468903,230.441137 C53.1129441,230.813887 52.2931161,230.999737 51.3863527,230.999737 C50.3072989,230.999737 49.3041161,230.806537 48.3757505,230.419612 C47.4479118,230.032687 46.609643,229.473037 45.8619978,228.742237 L46.7677075,227.645512 C47.4584495,228.319612 48.177643,228.814162 48.9263419,229.129162 C49.6739871,229.445212 50.4943419,229.602187 51.3863527,229.602187 C51.8326215,229.602187 52.2499118,229.537612 52.6382237,229.408987 C53.0265355,229.279837 53.3611054,229.100812 53.6419333,228.871387 C53.9227613,228.641962 54.1419441,228.362662 54.3000086,228.032437 C54.4580731,227.702737 54.5376323,227.344687 54.5376323,226.957237 C54.5376323,226.269487 54.2926323,225.724537 53.803686,225.322912 C53.558686,225.108187 53.2062022,224.896087 52.7462344,224.688712 C52.2857398,224.480812 51.7314602,224.269237 51.0844495,224.053987 C49.8757828,223.652887 48.943729,223.247587 48.2893419,222.839662 C47.6349548,222.430687 47.170772,221.982862 46.8978473,221.495137 C46.7677075,221.251537 46.6670731,220.986412 46.5954172,220.699237 C46.5232344,220.412587 46.4874065,220.083412 46.4874065,219.710662 C46.4874065,218.965162 46.6849871,218.298412 47.0806753,217.710412 C47.4763634,217.122937 48.0269548,216.664087 48.7319226,216.333862 C49.0917828,216.162187 49.4727183,216.036712 49.8757828,215.957437 C50.2788473,215.879212 50.6961376,215.839837 51.1276538,215.839837 C52.8252667,215.839837 54.3358366,216.449362 55.6593634,217.667362 L54.7104495,218.785612 C54.1055892,218.255362 53.5196968,217.868437 52.9511914,217.624312 C52.382686,217.380712 51.7820409,217.258912 51.1492559,217.258912 C50.2572452,217.258912 49.5338366,217.470487 48.9806108,217.893112 C48.4263312,218.315737 48.1497183,218.907412 48.1497183,219.667612 C48.1497183,220.326487 48.4084172,220.892962 48.9263419,221.365987 C49.429514,221.810662 50.5085677,222.291037 52.1635032,222.807112 C53.616643,223.265962 54.6524925,223.821412 55.2710516,224.473462 C55.8896108,225.126037 56.1994172,225.932437 56.1994172,226.892662 C56.1994172,227.638162 55.9902452,228.322762 55.5734817,228.946462 C55.1556645,229.570162 54.5808366,230.068387 53.8468903,230.441137" id="Fill-10" fill="#FFFFFF"></path>
                    <path d="M53.8468903,230.441137 C53.1129441,230.813887 52.2931161,230.999737 51.3863527,230.999737 C50.3072989,230.999737 49.3041161,230.806537 48.3757505,230.419612 C47.4479118,230.032687 46.609643,229.473037 45.8619978,228.742237 L46.7677075,227.645512 C47.4584495,228.319612 48.177643,228.814162 48.9263419,229.129162 C49.6739871,229.445212 50.4943419,229.602187 51.3863527,229.602187 C51.8326215,229.602187 52.2499118,229.537612 52.6382237,229.408987 C53.0265355,229.279837 53.3611054,229.100812 53.6419333,228.871387 C53.9227613,228.641962 54.1419441,228.362662 54.3000086,228.032437 C54.4580731,227.702737 54.5376323,227.344687 54.5376323,226.957237 C54.5376323,226.269487 54.2926323,225.724537 53.803686,225.322912 C53.558686,225.108187 53.2062022,224.896087 52.7462344,224.688712 C52.2857398,224.480812 51.7314602,224.269237 51.0844495,224.053987 C49.8757828,223.652887 48.943729,223.247587 48.2893419,222.839662 C47.6349548,222.430687 47.170772,221.982862 46.8978473,221.495137 C46.7677075,221.251537 46.6670731,220.986412 46.5954172,220.699237 C46.5232344,220.412587 46.4874065,220.083412 46.4874065,219.710662 C46.4874065,218.965162 46.6849871,218.298412 47.0806753,217.710412 C47.4763634,217.122937 48.0269548,216.664087 48.7319226,216.333862 C49.0917828,216.162187 49.4727183,216.036712 49.8757828,215.957437 C50.2788473,215.879212 50.6961376,215.839837 51.1276538,215.839837 C52.8252667,215.839837 54.3358366,216.449362 55.6593634,217.667362 L54.7104495,218.785612 C54.1055892,218.255362 53.5196968,217.868437 52.9511914,217.624312 C52.382686,217.380712 51.7820409,217.258912 51.1492559,217.258912 C50.2572452,217.258912 49.5338366,217.470487 48.9806108,217.893112 C48.4263312,218.315737 48.1497183,218.907412 48.1497183,219.667612 C48.1497183,220.326487 48.4084172,220.892962 48.9263419,221.365987 C49.429514,221.810662 50.5085677,222.291037 52.1635032,222.807112 C53.616643,223.265962 54.6524925,223.821412 55.2710516,224.473462 C55.8896108,225.126037 56.1994172,225.932437 56.1994172,226.892662 C56.1994172,227.638162 55.9902452,228.322762 55.5734817,228.946462 C55.1556645,229.570162 54.5808366,230.068387 53.8468903,230.441137 Z" id="Stroke-11" stroke="#FFFFFF" stroke-width="2"></path>
                    <polygon id="Fill-12" fill="#FFFFFF" points="72.6006129 217.473585 72.6006129 230.78496 70.8961505 230.78496 70.8961505 217.473585 66.2126989 217.473585 66.2126989 216.05451 77.2840645 216.05451 77.2840645 217.473585"></polygon>
                    <polygon id="Stroke-13" stroke="#FFFFFF" stroke-width="2" points="72.6006129 217.473585 72.6006129 230.78496 70.8961505 230.78496 70.8961505 217.473585 66.2126989 217.473585 66.2126989 216.05451 77.2840645 216.05451 77.2840645 217.473585"></polygon>
                    <polygon id="Fill-14" fill="#FFFFFF" points="88.4207634 230.785275 89.9745376 230.785275 89.9745376 215.55975 88.4207634 215.55975"></polygon>
                    <polygon id="Stroke-15" stroke="#FFFFFF" stroke-width="2" points="88.4207634 230.785275 89.9745376 230.785275 89.9745376 215.55975 88.4207634 215.55975"></polygon>
                    <polygon id="Fill-16" fill="#FFFFFF" points="112.59162 230.78517 104.282696 218.44137 104.282696 230.78517 102.750524 230.78517 102.750524 216.054195 104.477115 216.054195 112.78604 228.397995 112.78604 216.054195 114.318212 216.054195 114.318212 230.78517"></polygon>
                    <polygon id="Stroke-17" stroke="#FFFFFF" stroke-width="2" points="112.59162 230.78517 104.282696 218.44137 104.282696 230.78517 102.750524 230.78517 102.750524 216.054195 104.477115 216.054195 112.78604 228.397995 112.78604 216.054195 114.318212 216.054195 114.318212 230.78517"></polygon>
                    <path d="M137.022177,230.054055 C135.957349,230.685105 134.777661,231.000105 133.482586,231.000105 C132.087403,231.000105 130.835532,230.67093 129.7275,230.011005 C128.619468,229.351605 127.74221,228.441255 127.094672,227.279955 C126.778016,226.706655 126.537231,226.100805 126.37179,225.46293 C126.206349,224.825055 126.123102,224.147805 126.123102,223.430655 C126.123102,221.99688 126.443446,220.702755 127.084134,219.548805 C127.724296,218.394855 128.605242,217.48818 129.7275,216.82878 C130.849758,216.16938 132.101629,215.83968 133.482586,215.83968 C134.791887,215.83968 135.899919,216.011355 136.806683,216.35523 C137.712919,216.69963 138.5475,217.22358 139.309898,217.92498 L138.274048,219.021705 C137.640737,218.420055 136.949995,217.98693 136.201823,217.72128 C135.453651,217.456155 134.547414,217.32333 133.482586,217.32333 C132.403532,217.32333 131.443027,217.58478 130.601597,218.108205 C129.760167,218.63163 129.094188,219.36663 128.605242,220.312155 C128.101543,221.272905 127.85022,222.312405 127.85022,223.430655 C127.85022,224.56308 128.091005,225.588405 128.573102,226.50558 C129.054672,227.42328 129.734876,228.154605 130.612661,228.69903 C131.489919,229.24398 132.446737,229.516455 133.482586,229.516455 C134.360371,229.516455 135.173349,229.33008 135.921522,228.95733 C136.669694,228.58458 137.295629,228.053805 137.799328,227.366055 C138.043274,227.036355 138.248758,226.66728 138.414199,226.25883 C138.57964,225.849855 138.705565,225.373155 138.791973,224.828205 L133.72021,224.828205 L133.72021,223.40913 L140.432156,223.40913 L140.432156,223.473705 L140.432156,223.94673 C140.432156,225.25188 140.133414,226.433655 139.536457,227.495205 C138.9395,228.555705 138.101231,229.40883 137.022177,230.054055" id="Fill-18" fill="#FFFFFF"></path>
                    <path d="M137.022177,230.054055 C135.957349,230.685105 134.777661,231.000105 133.482586,231.000105 C132.087403,231.000105 130.835532,230.67093 129.7275,230.011005 C128.619468,229.351605 127.74221,228.441255 127.094672,227.279955 C126.778016,226.706655 126.537231,226.100805 126.37179,225.46293 C126.206349,224.825055 126.123102,224.147805 126.123102,223.430655 C126.123102,221.99688 126.443446,220.702755 127.084134,219.548805 C127.724296,218.394855 128.605242,217.48818 129.7275,216.82878 C130.849758,216.16938 132.101629,215.83968 133.482586,215.83968 C134.791887,215.83968 135.899919,216.011355 136.806683,216.35523 C137.712919,216.69963 138.5475,217.22358 139.309898,217.92498 L138.274048,219.021705 C137.640737,218.420055 136.949995,217.98693 136.201823,217.72128 C135.453651,217.456155 134.547414,217.32333 133.482586,217.32333 C132.403532,217.32333 131.443027,217.58478 130.601597,218.108205 C129.760167,218.63163 129.094188,219.36663 128.605242,220.312155 C128.101543,221.272905 127.85022,222.312405 127.85022,223.430655 C127.85022,224.56308 128.091005,225.588405 128.573102,226.50558 C129.054672,227.42328 129.734876,228.154605 130.612661,228.69903 C131.489919,229.24398 132.446737,229.516455 133.482586,229.516455 C134.360371,229.516455 135.173349,229.33008 135.921522,228.95733 C136.669694,228.58458 137.295629,228.053805 137.799328,227.366055 C138.043274,227.036355 138.248758,226.66728 138.414199,226.25883 C138.57964,225.849855 138.705565,225.373155 138.791973,224.828205 L133.72021,224.828205 L133.72021,223.40913 L140.432156,223.40913 L140.432156,223.473705 L140.432156,223.94673 C140.432156,225.25188 140.133414,226.433655 139.536457,227.495205 C138.9395,228.555705 138.101231,229.40883 137.022177,230.054055 Z" id="Stroke-19" stroke="#FFFFFF" stroke-width="2"></path>
                </g>
            </g>
        </g>
    </g>
</svg>