<svg width="145px" height="74px" viewBox="0 0 145 74" version="1.1" xmlns="http://www.w3.org/2000/svg" xmlns:xlink="http://www.w3.org/1999/xlink">
    <g id="Page-1" stroke="none" stroke-width="1" fill="none" fill-rule="evenodd">
        <g id="Menu" transform="translate(-633.000000, -45.000000)">
            <g id="Group-22" transform="translate(633.000000, 46.000000)">
                <polygon id="Fill-1" fill="#FFFFFF" points="39.8870553 2 27.0994035 38.7327996 14.2453956 2 7.08938912 2 0 48 7.1557452 48 12.05878 15.6320519 23.3886881 48 30.6771455 48 42.0070536 15.7662939 46.8439936 48 54 48 46.9103496 2"></polygon>
                <g id="Group-21" transform="translate(34.000000, 0.000000)">
                    <path d="M26.5938364,47.3185055 L32.7768995,47.3185055 L32.7768995,15.6126593 L26.5938364,15.6126593 L26.5938364,47.3185055 Z M33.7634509,4.17468132 C33.7634509,5.33485714 33.3606869,6.29327473 32.5559369,7.05098901 C31.7511869,7.80975824 30.7830491,8.18821978 29.6523014,8.18821978 C28.5220724,8.18821978 27.5650864,7.79815385 26.7821215,7.01749451 C25.9988972,6.23789011 25.607285,5.29002198 25.607285,4.17468132 C25.607285,3.01582418 25.9988972,2.0458022 26.7821215,1.26514286 C27.5650864,0.485274725 28.5220724,0.0944175824 29.6523014,0.0944175824 C30.7830491,0.0944175824 31.7511869,0.485274725 32.5559369,1.26514286 C33.3606869,2.0458022 33.7634509,3.01582418 33.7634509,4.17468132 L33.7634509,4.17468132 Z" id="Fill-2" fill="#FFFFFF"></path>
                    <path d="M26.5938364,47.3185055 L32.7768995,47.3185055 L32.7768995,15.6126593 L26.5938364,15.6126593 L26.5938364,47.3185055 Z M33.7634509,4.17468132 C33.7634509,5.33485714 33.3606869,6.29327473 32.5559369,7.05098901 C31.7511869,7.80975824 30.7830491,8.18821978 29.6523014,8.18821978 C28.5220724,8.18821978 27.5650864,7.79815385 26.7821215,7.01749451 C25.9988972,6.23789011 25.607285,5.29002198 25.607285,4.17468132 C25.607285,3.01582418 25.9988972,2.0458022 26.7821215,1.26514286 C27.5650864,0.485274725 28.5220724,0.0944175824 29.6523014,0.0944175824 C30.7830491,0.0944175824 31.7511869,0.485274725 32.5559369,1.26514286 C33.3606869,2.0458022 33.7634509,3.01582418 33.7634509,4.17468132 Z" id="Stroke-4" stroke="#FFFFFF" stroke-width="1.2"></path>
                    <polygon id="Fill-5" fill="#FFFFFF" points="39.9455804 1.49923516 47.1154542 1.49923516 47.1154542 40.5625319 65.6641248 40.5625319 65.6641248 47.3184 39.9455804 47.3184"></polygon>
                    <path d="M88.5863509,7.78665495 C85.7734864,7.78665495 83.2350098,8.50058901 80.9719584,9.92713846 C78.7086477,11.3547429 76.9401687,13.338567 75.6657435,15.8801934 C74.3469701,18.4220835 73.6882318,21.2765011 73.6882318,24.4421275 C73.6882318,27.5639736 74.3140332,30.373556 75.5669327,32.8703473 C76.8187949,35.3681934 78.631622,37.3520176 81.0059327,38.8236659 C83.3345986,40.2950505 85.860886,41.0308747 88.5863509,41.0308747 C91.3984374,41.0308747 93.936914,40.3182593 96.1999654,38.8906549 C98.4632762,37.463578 100.254578,35.4789626 101.573092,32.9370725 C102.847517,30.4851165 103.484729,27.6528527 103.484729,24.4421275 C103.484729,21.2316659 102.847517,18.3666989 101.573092,15.8469626 C100.298666,13.3282813 98.5187762,11.3547429 96.2329023,9.92713846 C94.0357248,8.50058901 91.4868743,7.78665495 88.5863509,7.78665495 M88.5863509,47.9874462 C84.3387855,47.9874462 80.5289958,46.9620396 77.1580192,44.9104352 C73.7870425,42.8598857 71.1157808,40.027622 69.1455308,36.4154901 C67.1742435,32.8033582 66.1897668,28.8132923 66.1897668,24.4421275 C66.1897668,20.0274462 67.1638696,16.0371165 69.1125939,12.4690286 C71.0613182,8.9019956 73.7426944,6.04757802 77.1580192,3.90709451 C80.5289958,1.85654505 84.3387855,0.830347253 88.5863509,0.830347253 C92.8331383,0.830347253 96.6530425,1.85654505 100.046842,3.90709451 C103.440381,5.9586989 106.122017,8.79017143 108.093304,12.4020396 C110.019206,16.0590066 110.983194,20.0725451 110.983194,24.4421275 C110.983194,28.8570725 110.019206,32.8368527 108.093304,36.3819956 C106.166106,39.9271385 103.473318,42.7702154 100.014942,44.9104352 C96.642928,46.9620396 92.8331383,47.9874462 88.5863509,47.9874462" id="Fill-6" fill="#FFFFFF"></path>
                    <path d="M3.97641939,71.9340659 C3.24350818,71.9340659 2.58269509,71.7576264 1.99346145,71.403956 C1.4042278,71.0508132 0.939739486,70.5629011 0.599477804,69.9404835 C0.433496495,69.6332308 0.306935748,69.3088352 0.220054907,68.9667692 C0.133174065,68.6252308 0.0898633178,68.2620659 0.0898633178,67.8778022 C0.0898633178,67.1098022 0.259734813,66.4164396 0.599477804,65.7977143 C0.939739486,65.1797802 1.4042278,64.6937143 1.99346145,64.3403077 C2.58269509,63.9869011 3.24350818,63.8101978 3.97641939,63.8101978 C4.98864603,63.8101978 5.88027687,64.1828571 6.65079322,64.9279121 L6.11809696,65.5155165 C5.47595678,64.9086593 4.7619778,64.6053626 3.97641939,64.6053626 C3.40974883,64.6053626 2.90376519,64.7454066 2.45820911,65.026022 C2.01213435,65.3063736 1.6573493,65.6998681 1.39281659,66.207033 C1.13580491,66.7065495 1.00768808,67.2632967 1.00768808,67.8778022 C1.00768808,68.4849231 1.13398949,69.0342857 1.38711098,69.5256264 C1.64023248,70.0174945 1.99709229,70.4094066 2.45820911,70.7010989 C2.91880724,70.9933187 3.42505023,71.1389011 3.97641939,71.1389011 C4.81488435,71.1389011 5.55894743,70.7970989 6.20886799,70.1134945 L6.76412734,70.7127033 C5.95548715,71.5271209 5.02651051,71.9340659 3.97641939,71.9340659" id="Fill-7" fill="#FFFFFF"></path>
                    <path d="M3.97641939,71.9340659 C3.24350818,71.9340659 2.58269509,71.7576264 1.99346145,71.403956 C1.4042278,71.0508132 0.939739486,70.5629011 0.599477804,69.9404835 C0.433496495,69.6332308 0.306935748,69.3088352 0.220054907,68.9667692 C0.133174065,68.6252308 0.0898633178,68.2620659 0.0898633178,67.8778022 C0.0898633178,67.1098022 0.259734813,66.4164396 0.599477804,65.7977143 C0.939739486,65.1797802 1.4042278,64.6937143 1.99346145,64.3403077 C2.58269509,63.9869011 3.24350818,63.8101978 3.97641939,63.8101978 C4.98864603,63.8101978 5.88027687,64.1828571 6.65079322,64.9279121 L6.11809696,65.5155165 C5.47595678,64.9086593 4.7619778,64.6053626 3.97641939,64.6053626 C3.40974883,64.6053626 2.90376519,64.7454066 2.45820911,65.026022 C2.01213435,65.3063736 1.6573493,65.6998681 1.39281659,66.207033 C1.13580491,66.7065495 1.00768808,67.2632967 1.00768808,67.8778022 C1.00768808,68.4849231 1.13398949,69.0342857 1.38711098,69.5256264 C1.64023248,70.0174945 1.99709229,70.4094066 2.45820911,70.7010989 C2.91880724,70.9933187 3.42505023,71.1389011 3.97641939,71.1389011 C4.81488435,71.1389011 5.55894743,70.7970989 6.20886799,70.1134945 L6.76412734,70.7127033 C5.95548715,71.5271209 5.02651051,71.9340659 3.97641939,71.9340659 Z" id="Stroke-8" stroke="#FFFFFF" stroke-width="0.5"></path>
                    <path d="M15.2398591,64.8471824 L13.6080554,68.9954901 L16.8716629,68.9954901 L15.2398591,64.8471824 Z M17.9821815,71.8190505 L17.1662797,69.7561055 L13.3022867,69.7561055 L12.4975367,71.8190505 L11.6365086,71.8190505 L14.7979339,63.9254242 L15.7271699,63.9254242 L18.8771839,71.8190505 L17.9821815,71.8190505 Z" id="Fill-9" fill="#FFFFFF"></path>
                    <path d="M15.2398591,64.8471824 L13.6080554,68.9954901 L16.8716629,68.9954901 L15.2398591,64.8471824 Z M17.9821815,71.8190505 L17.1662797,69.7561055 L13.3022867,69.7561055 L12.4975367,71.8190505 L11.6365086,71.8190505 L14.7979339,63.9254242 L15.7271699,63.9254242 L18.8771839,71.8190505 L17.9821815,71.8190505 Z" id="Stroke-10" stroke="#FFFFFF" stroke-width="0.5"></path>
                    <path d="M28.3620301,71.6345407 C27.9766423,71.834189 27.5461283,71.9341451 27.0702287,71.9341451 C26.5035582,71.9341451 25.9765675,71.8304967 25.4895161,71.6229363 C25.0022054,71.4156396 24.5620956,71.1160352 24.1691867,70.7243868 L24.6450862,70.1365187 C25.007911,70.4975736 25.3855185,70.7626286 25.7784273,70.9316835 C26.1710769,71.1007385 26.6015909,71.1851341 27.0702287,71.1851341 C27.3041586,71.1851341 27.5235652,71.1505846 27.727411,71.0814857 C27.9312568,71.0123868 28.1070932,70.9161231 28.2544016,70.7934857 C28.40171,70.6705846 28.5168596,70.5207824 28.5998502,70.3438154 C28.6831002,70.1673758 28.7245956,69.9751121 28.7245956,69.7678154 C28.7245956,69.3988484 28.59596,69.107156 28.3394671,68.892211 C28.2108315,68.7766945 28.0256586,68.6632879 27.7839484,68.5519912 C27.5422381,68.4409582 27.2515114,68.3272879 26.9115091,68.2120352 C26.27689,67.9970901 25.7877638,67.7800352 25.4441306,67.5611341 C25.1002381,67.342233 24.8567124,67.1019692 24.7132942,66.8408703 C24.6450862,66.7103209 24.5921797,66.568167 24.5545745,66.4144088 C24.51671,66.2609143 24.4980371,66.084211 24.4980371,65.8842989 C24.4980371,65.4850022 24.6015161,65.1276396 24.8095114,64.8127385 C25.0172474,64.4975736 25.3061586,64.2520352 25.6765044,64.0753319 C25.8653082,63.9830242 26.0655231,63.9157714 26.27689,63.8735736 C26.4882568,63.8313758 26.7076633,63.8102769 26.9343315,63.8102769 C27.8254437,63.8102769 28.6187825,64.1367824 29.3138292,64.7897934 L28.8153666,65.3887385 C28.4979273,65.1046945 28.1900839,64.8973978 27.8918362,64.7665846 C27.5933292,64.6360352 27.2779647,64.5706286 26.9454834,64.5706286 C26.4771049,64.5706286 26.0974227,64.6840352 25.806696,64.9105846 C25.51571,65.1373978 25.3704764,65.4541451 25.3704764,65.8613538 C25.3704764,66.2147604 25.5063736,66.5183209 25.7784273,66.7717714 C26.0427007,67.0099253 26.6093713,67.2670681 27.4781797,67.5437275 C28.241175,67.7897934 28.7850231,68.0872879 29.1099834,68.4367385 C29.4346843,68.7864527 29.5970348,69.2187165 29.5970348,69.7332659 C29.5970348,70.1328264 29.4875909,70.4994198 29.2684437,70.8338374 C29.0492965,71.1677275 28.7471586,71.4348923 28.3620301,71.6345407" id="Fill-11" fill="#FFFFFF"></path>
                    <path d="M28.3620301,71.6345407 C27.9766423,71.834189 27.5461283,71.9341451 27.0702287,71.9341451 C26.5035582,71.9341451 25.9765675,71.8304967 25.4895161,71.6229363 C25.0022054,71.4156396 24.5620956,71.1160352 24.1691867,70.7243868 L24.6450862,70.1365187 C25.007911,70.4975736 25.3855185,70.7626286 25.7784273,70.9316835 C26.1710769,71.1007385 26.6015909,71.1851341 27.0702287,71.1851341 C27.3041586,71.1851341 27.5235652,71.1505846 27.727411,71.0814857 C27.9312568,71.0123868 28.1070932,70.9161231 28.2544016,70.7934857 C28.40171,70.6705846 28.5168596,70.5207824 28.5998502,70.3438154 C28.6831002,70.1673758 28.7245956,69.9751121 28.7245956,69.7678154 C28.7245956,69.3988484 28.59596,69.107156 28.3394671,68.892211 C28.2108315,68.7766945 28.0256586,68.6632879 27.7839484,68.5519912 C27.5422381,68.4409582 27.2515114,68.3272879 26.9115091,68.2120352 C26.27689,67.9970901 25.7877638,67.7800352 25.4441306,67.5611341 C25.1002381,67.342233 24.8567124,67.1019692 24.7132942,66.8408703 C24.6450862,66.7103209 24.5921797,66.568167 24.5545745,66.4144088 C24.51671,66.2609143 24.4980371,66.084211 24.4980371,65.8842989 C24.4980371,65.4850022 24.6015161,65.1276396 24.8095114,64.8127385 C25.0172474,64.4975736 25.3061586,64.2520352 25.6765044,64.0753319 C25.8653082,63.9830242 26.0655231,63.9157714 26.27689,63.8735736 C26.4882568,63.8313758 26.7076633,63.8102769 26.9343315,63.8102769 C27.8254437,63.8102769 28.6187825,64.1367824 29.3138292,64.7897934 L28.8153666,65.3887385 C28.4979273,65.1046945 28.1900839,64.8973978 27.8918362,64.7665846 C27.5933292,64.6360352 27.2779647,64.5706286 26.9454834,64.5706286 C26.4771049,64.5706286 26.0974227,64.6840352 25.806696,64.9105846 C25.51571,65.1373978 25.3704764,65.4541451 25.3704764,65.8613538 C25.3704764,66.2147604 25.5063736,66.5183209 25.7784273,66.7717714 C26.0427007,67.0099253 26.6093713,67.2670681 27.4781797,67.5437275 C28.241175,67.7897934 28.7850231,68.0872879 29.1099834,68.4367385 C29.4346843,68.7864527 29.5970348,69.2187165 29.5970348,69.7332659 C29.5970348,70.1328264 29.4875909,70.4994198 29.2684437,70.8338374 C29.0492965,71.1677275 28.7471586,71.4348923 28.3620301,71.6345407 Z" id="Stroke-12" stroke="#FFFFFF" stroke-width="0.5"></path>
                    <polygon id="Fill-13" fill="#FFFFFF" points="38.2089231 64.6859604 38.2089231 71.8189714 37.3139208 71.8189714 37.3139208 64.6859604 34.854804 64.6859604 34.854804 63.9253451 40.6677806 63.9253451 40.6677806 64.6859604"></polygon>
                    <polygon id="Stroke-14" stroke="#FFFFFF" stroke-width="0.5" points="38.2089231 64.6859604 38.2089231 71.8189714 37.3139208 71.8189714 37.3139208 64.6859604 34.854804 64.6859604 34.854804 63.9253451 40.6677806 63.9253451 40.6677806 64.6859604"></polygon>
                    <polygon id="Fill-15" fill="#FFFFFF" points="46.5152243 71.8188132 47.3311262 71.8188132 47.3311262 63.6601319 46.5152243 63.6601319"></polygon>
                    <polygon id="Stroke-16" stroke="#FFFFFF" stroke-width="0.5" points="46.5152243 71.8188132 47.3311262 71.8188132 47.3311262 63.6601319 46.5152243 63.6601319"></polygon>
                    <polygon id="Fill-17" fill="#FFFFFF" points="59.2063107 71.8189451 54.8438551 65.2044396 54.8438551 71.8189451 54.0391051 71.8189451 54.0391051 63.9253187 54.945778 63.9253187 59.308493 70.5398242 59.308493 63.9253187 60.1129836 63.9253187 60.1129836 71.8189451"></polygon>
                    <polygon id="Stroke-18" stroke="#FFFFFF" stroke-width="0.5" points="59.2063107 71.8189451 54.8438551 65.2044396 54.8438551 71.8189451 54.0391051 71.8189451 54.0391051 63.9253187 54.945778 63.9253187 59.308493 70.5398242 59.308493 63.9253187 60.1129836 63.9253187 60.1129836 71.8189451"></polygon>
                    <path d="M72.0338131,71.4271912 C71.4749229,71.7653011 70.8553458,71.9340923 70.1756005,71.9340923 C69.4426893,71.9340923 68.785507,71.7576527 68.2037944,71.4039824 C67.6218224,71.0508396 67.1612243,70.5629275 66.821222,69.9405099 C66.6552407,69.6332571 66.5284206,69.3088615 66.4417991,68.9667956 C66.3549182,68.6252571 66.3116075,68.2620923 66.3116075,67.8778286 C66.3116075,67.1098286 66.4794042,66.4164659 66.8157757,65.7977407 C67.1518879,65.1798066 67.6145607,64.6937407 68.2037944,64.3403341 C68.793028,63.9869275 69.4502103,63.8102242 70.1756005,63.8102242 C70.8628668,63.8102242 71.4448388,63.9022681 71.920479,64.0866198 C72.3963785,64.2709714 72.8346729,64.5515868 73.2351028,64.9276747 L72.6909953,65.5155429 C72.3587734,65.1929934 71.9959486,64.9606418 71.6032991,64.8182242 C71.2103902,64.6763341 70.7344907,64.605389 70.1756005,64.605389 C69.6089299,64.605389 69.1047617,64.745433 68.6628364,65.0260484 C68.2209112,65.3064 67.8713131,65.6998945 67.6145607,66.2070593 C67.350028,66.7216088 67.218021,67.2788835 67.218021,67.8778286 C67.218021,68.4849495 67.3443224,69.0343121 67.5977033,69.5256527 C67.8505654,70.0175209 68.2074252,70.409433 68.6682827,70.7011253 C69.1291402,70.9930813 69.631493,71.1389275 70.1756005,71.1389275 C70.6361986,71.1389275 71.0630818,71.0392352 71.4559907,70.8393231 C71.8486402,70.6399385 72.1774907,70.3556308 72.441764,69.9866637 C72.5701402,69.8099604 72.6777687,69.6121582 72.7646495,69.3932571 C72.8515304,69.174356 72.9176636,68.9187956 72.9630491,68.6271033 L70.3000864,68.6271033 L70.3000864,67.8664879 L73.8243364,67.8664879 L73.8243364,67.9010374 L73.8243364,68.1544879 C73.8243364,68.8536527 73.6674322,69.487411 73.3541425,70.0560264 C73.0405935,70.624378 72.6004836,71.081433 72.0338131,71.4271912" id="Fill-19" fill="#FFFFFF"></path>
                    <path d="M72.0338131,71.4271912 C71.4749229,71.7653011 70.8553458,71.9340923 70.1756005,71.9340923 C69.4426893,71.9340923 68.785507,71.7576527 68.2037944,71.4039824 C67.6218224,71.0508396 67.1612243,70.5629275 66.821222,69.9405099 C66.6552407,69.6332571 66.5284206,69.3088615 66.4417991,68.9667956 C66.3549182,68.6252571 66.3116075,68.2620923 66.3116075,67.8778286 C66.3116075,67.1098286 66.4794042,66.4164659 66.8157757,65.7977407 C67.1518879,65.1798066 67.6145607,64.6937407 68.2037944,64.3403341 C68.793028,63.9869275 69.4502103,63.8102242 70.1756005,63.8102242 C70.8628668,63.8102242 71.4448388,63.9022681 71.920479,64.0866198 C72.3963785,64.2709714 72.8346729,64.5515868 73.2351028,64.9276747 L72.6909953,65.5155429 C72.3587734,65.1929934 71.9959486,64.9606418 71.6032991,64.8182242 C71.2103902,64.6763341 70.7344907,64.605389 70.1756005,64.605389 C69.6089299,64.605389 69.1047617,64.745433 68.6628364,65.0260484 C68.2209112,65.3064 67.8713131,65.6998945 67.6145607,66.2070593 C67.350028,66.7216088 67.218021,67.2788835 67.218021,67.8778286 C67.218021,68.4849495 67.3443224,69.0343121 67.5977033,69.5256527 C67.8505654,70.0175209 68.2074252,70.409433 68.6682827,70.7011253 C69.1291402,70.9930813 69.631493,71.1389275 70.1756005,71.1389275 C70.6361986,71.1389275 71.0630818,71.0392352 71.4559907,70.8393231 C71.8486402,70.6399385 72.1774907,70.3556308 72.441764,69.9866637 C72.5701402,69.8099604 72.6777687,69.6121582 72.7646495,69.3932571 C72.8515304,69.174356 72.9176636,68.9187956 72.9630491,68.6271033 L70.3000864,68.6271033 L70.3000864,67.8664879 L73.8243364,67.8664879 L73.8243364,67.9010374 L73.8243364,68.1544879 C73.8243364,68.8536527 73.6674322,69.487411 73.3541425,70.0560264 C73.0405935,70.624378 72.6004836,71.081433 72.0338131,71.4271912 Z" id="Stroke-20" stroke="#FFFFFF" stroke-width="0.5"></path>
                </g>
            </g>
        </g>
    </g>
</svg>